<!DOCTYPE svg PUBLIC "-//W3C//DTD SVG 20010904//EN" "http://www.w3.org/TR/2001/REC-SVG-20010904/DTD/svg10.dtd">
<svg version="1.0" xmlns="http://www.w3.org/2000/svg" width="1600px" height="889px" viewBox="0 0 16000 8890" preserveAspectRatio="xMidYMid meet">
<g id="layer101" fill="#4f5d41" stroke="none">
 <path d="M3457 8527 c-17 -14 -25 -52 -32 -152 -13 -185 -17 -215 -30 -215 -16 0 -12 -107 5 -124 11 -11 13 -791 2 -886 -4 -30 -7 107 -7 304 l0 360 -30 8 c-28 7 -238 39 -395 59 -36 4 -101 13 -145 18 -44 6 -91 13 -105 16 -14 2 -104 12 -200 20 -96 9 -213 20 -260 25 -47 5 -139 14 -205 20 -66 6 -127 13 -135 16 -19 7 -560 33 -835 41 -116 3 -214 8 -220 12 -18 13 -72 11 -107 -3 -81 -34 -75 -74 25 -168 40 -38 75 -68 79 -68 4 0 10 -9 13 -20 3 -11 12 -20 20 -20 7 0 32 -18 55 -40 23 -22 45 -40 49 -40 4 0 26 -18 49 -40 22 -22 48 -40 56 -40 9 0 16 -4 16 -9 0 -5 36 -35 80 -67 44 -32 80 -64 80 -71 0 -7 8 -13 18 -13 21 0 57 -29 65 -52 3 -9 21 -20 41 -24 20 -3 36 -10 36 -16 0 -5 15 -15 33 -23 19 -8 39 -21 47 -29 7 -9 19 -16 28 -16 8 0 29 -10 46 -23 17 -13 58 -36 91 -51 33 -16 65 -33 70 -40 12 -13 116 -66 131 -66 6 0 21 -11 34 -25 13 -14 28 -25 34 -25 10 0 91 -39 141 -68 11 -6 45 -23 75 -37 30 -15 66 -33 80 -41 14 -7 54 -27 90 -44 36 -17 72 -34 80 -40 8 -5 40 -20 70 -35 30 -14 62 -30 70 -35 28 -17 132 -60 146 -60 8 0 14 -3 14 -7 0 -8 48 -33 62 -33 5 0 50 -20 101 -44 51 -24 103 -47 116 -51 14 -4 38 -16 55 -26 17 -11 38 -19 47 -19 9 0 19 -7 23 -15 3 -8 15 -15 27 -15 11 0 33 -6 47 -14 15 -7 44 -21 64 -29 l37 -16 17 35 c9 19 20 49 24 67 7 28 8 29 9 7 0 -14 -6 -38 -14 -54 -8 -15 -15 -37 -15 -47 0 -10 -5 -21 -11 -25 -6 -4 -8 -20 -4 -40 4 -22 2 -34 -5 -34 -6 0 -9 -8 -6 -18 4 -11 0 -35 -8 -54 -8 -19 -20 -75 -25 -124 -6 -49 -19 -120 -31 -159 -11 -38 -24 -92 -29 -120 -5 -27 -25 -92 -45 -143 -20 -52 -36 -108 -36 -125 0 -18 -16 -63 -35 -101 -19 -38 -37 -83 -41 -100 -9 -42 -46 -106 -61 -106 -7 0 -15 -10 -18 -23 -16 -61 -125 -76 -355 -48 -108 13 -171 12 -248 -5 -69 -14 -67 -116 2 -188 63 -65 156 -136 177 -136 10 0 19 -7 19 -15 0 -8 6 -15 14 -15 7 0 28 -14 46 -31 18 -17 43 -37 55 -43 13 -7 45 -37 72 -66 63 -70 83 -141 63 -223 -9 -42 -20 -58 -45 -76 -30 -20 -42 -22 -127 -18 -103 5 -146 13 -166 34 -7 7 -20 13 -27 13 -14 0 -86 30 -130 53 -11 6 -49 26 -85 44 -35 19 -71 39 -80 46 -15 12 -26 19 -99 59 -20 11 -45 28 -56 37 -21 19 -55 35 -67 33 -5 -1 -8 4 -8 11 0 8 -12 19 -27 26 -15 7 -43 25 -64 42 -20 16 -40 29 -44 29 -3 0 -20 14 -37 30 -16 17 -36 30 -43 30 -8 0 -18 6 -22 14 -9 15 -179 146 -190 146 -4 0 -20 15 -37 34 -17 18 -42 37 -56 41 -13 4 -37 20 -52 35 -15 16 -49 38 -75 51 -27 12 -60 33 -75 45 -15 12 -57 32 -93 44 -36 12 -65 25 -65 29 0 16 -117 36 -205 36 -89 0 -131 -12 -175 -47 -24 -20 -70 -135 -70 -174 0 -38 15 -74 36 -87 8 -4 14 -14 14 -22 0 -7 15 -25 33 -39 17 -14 40 -34 50 -44 10 -9 23 -17 28 -17 5 0 13 -5 17 -12 15 -23 164 -134 233 -172 19 -11 41 -27 48 -35 8 -9 19 -16 25 -16 7 0 21 -9 33 -19 11 -10 35 -27 54 -36 19 -10 37 -22 40 -27 7 -11 35 -28 96 -57 24 -11 58 -31 76 -45 19 -14 39 -26 45 -26 12 0 77 -41 102 -63 8 -8 28 -17 45 -21 16 -4 32 -11 35 -14 10 -13 85 -59 110 -67 14 -4 37 -18 52 -30 15 -13 56 -37 92 -55 37 -17 66 -35 66 -40 0 -4 21 -17 48 -29 59 -28 87 -44 109 -62 10 -9 31 -21 48 -28 16 -7 35 -21 43 -32 7 -10 19 -19 25 -20 7 0 39 -20 72 -44 33 -25 77 -53 98 -62 20 -10 37 -21 37 -24 0 -3 30 -29 67 -57 38 -28 81 -64 96 -81 16 -17 33 -31 37 -31 13 0 77 -100 85 -133 10 -37 -39 -135 -71 -143 -42 -11 -191 13 -219 35 -5 5 -35 14 -65 21 -30 7 -107 30 -170 51 -63 20 -133 40 -155 44 -22 4 -53 12 -70 19 -73 31 -135 50 -192 59 -35 6 -63 14 -63 18 0 4 -15 10 -33 14 -17 3 -41 10 -52 14 -46 19 -93 31 -118 31 -14 0 -29 5 -32 10 -3 6 -15 10 -26 10 -11 0 -62 13 -112 29 -51 16 -112 32 -137 35 -45 6 -46 6 -57 -26 -21 -62 -23 -102 -8 -132 8 -15 15 -34 15 -40 0 -7 18 -23 40 -36 22 -14 40 -28 40 -32 0 -9 115 -88 128 -88 5 0 17 -9 27 -20 9 -10 33 -24 51 -30 19 -7 34 -16 34 -21 0 -5 5 -9 10 -9 6 0 27 -11 48 -24 21 -13 52 -27 70 -31 17 -3 32 -11 32 -16 0 -5 5 -9 10 -9 6 0 28 -11 50 -25 22 -14 46 -25 54 -25 8 0 49 -18 91 -40 42 -22 83 -40 91 -40 8 0 38 -12 66 -26 52 -27 160 -64 184 -64 8 0 14 -4 14 -9 0 -5 15 -13 33 -16 17 -4 37 -11 42 -15 8 -6 52 -20 75 -24 16 -3 90 -43 117 -63 17 -14 34 -24 38 -23 3 0 25 -17 48 -39 29 -28 49 -58 61 -96 18 -52 19 -57 3 -91 -9 -19 -17 -46 -17 -59 0 -17 -9 -29 -29 -40 -17 -8 -36 -23 -43 -32 -22 -30 -79 -43 -189 -43 -107 0 -149 10 -244 59 -21 12 -45 21 -51 21 -13 0 -75 30 -84 41 -10 11 -91 39 -113 39 -13 0 -32 7 -43 15 -10 8 -38 15 -60 15 -33 0 -49 -6 -73 -29 -28 -26 -31 -35 -31 -85 0 -31 4 -56 9 -56 6 0 7 -15 4 -34 -4 -23 6 -68 31 -145 20 -62 36 -120 36 -129 0 -9 18 -66 40 -125 22 -60 40 -119 40 -133 0 -13 18 -62 40 -109 22 -47 40 -94 40 -104 0 -20 75 -113 112 -140 31 -22 126 -25 208 -6 41 10 93 20 114 22 22 3 46 12 54 19 7 8 21 14 31 14 9 0 35 8 57 19 21 10 57 24 79 32 22 7 52 21 67 31 14 10 33 18 41 18 8 0 20 6 26 14 7 8 27 18 44 22 17 3 43 14 57 23 41 27 63 40 108 62 23 12 42 25 42 29 0 4 8 10 18 14 9 3 31 15 47 25 17 11 45 28 63 37 17 9 32 23 32 30 0 8 14 17 30 21 17 3 36 13 43 22 12 16 40 36 67 48 15 6 90 62 100 73 3 4 20 12 38 19 17 8 32 16 32 20 0 9 -82 30 -170 42 -143 20 -249 45 -317 75 -17 8 -36 14 -42 14 -7 0 -32 20 -56 44 -37 36 -45 50 -45 80 0 64 82 131 194 160 87 22 522 11 1006 -25 69 -5 208 -13 310 -18 102 -5 279 -14 393 -20 114 -7 212 -9 216 -7 4 3 49 6 99 7 50 1 90 5 87 8 -4 7 91 31 143 37 14 1 28 6 31 11 3 5 13 9 21 8 17 0 60 41 60 57 0 6 3 9 6 5 3 -3 19 6 35 21 24 22 30 38 34 84 5 60 0 69 -72 145 -6 7 -13 17 -15 21 -7 21 -142 97 -185 105 -33 7 -169 42 -237 63 -26 8 -65 14 -85 14 -20 0 -92 7 -161 15 -69 9 -161 20 -205 25 -44 5 -116 14 -160 20 -44 6 -147 15 -230 20 -82 5 -195 14 -250 20 -55 6 -161 18 -235 26 -74 8 -171 19 -215 24 -44 5 -118 12 -165 15 -94 6 -147 19 -196 48 -49 29 -54 38 -54 98 0 68 15 89 87 121 83 37 518 27 797 -18 112 -18 337 -19 354 -2 7 7 12 17 12 24 0 14 -65 58 -166 112 -11 6 -35 17 -54 25 -19 8 -55 24 -80 35 -25 11 -85 36 -135 57 -49 21 -94 42 -99 46 -6 5 -19 9 -30 9 -12 0 -34 9 -51 20 -16 11 -37 20 -46 20 -9 0 -28 9 -42 20 -14 11 -34 20 -44 20 -10 0 -23 4 -29 9 -5 6 -38 25 -74 43 -172 88 -295 225 -295 330 0 52 48 116 113 150 53 29 78 33 362 58 123 11 200 26 210 39 3 3 18 11 35 16 35 12 69 74 81 144 5 34 2 56 -16 100 -29 71 -44 87 -100 114 -48 22 -107 31 -282 43 -104 7 -107 8 -142 42 -27 26 -36 42 -36 68 0 33 28 152 50 208 5 15 10 47 10 72 0 25 6 57 14 72 19 37 66 252 66 300 0 22 6 55 14 73 8 19 14 36 14 39 0 3 7 23 16 45 18 43 28 82 47 183 6 34 16 62 20 62 5 0 9 8 9 17 0 10 8 37 18 60 24 60 38 59 187 -13 28 -13 64 -26 80 -30 17 -4 51 -17 77 -30 26 -13 54 -24 63 -24 8 0 15 -4 15 -10 0 -5 11 -10 25 -10 14 0 52 -11 84 -25 77 -32 142 -55 161 -55 8 0 33 -9 55 -20 22 -11 47 -19 55 -20 9 0 20 -4 25 -9 6 -5 41 -16 79 -26 38 -9 83 -23 100 -30 17 -7 49 -21 71 -30 90 -39 133 -74 160 -133 43 -94 65 -218 65 -371 0 -126 2 -143 30 -220 16 -47 34 -89 40 -95 5 -5 10 -21 10 -34 0 -13 16 -51 35 -84 19 -32 39 -76 44 -97 4 -20 24 -58 44 -85 21 -26 37 -57 37 -68 0 -12 15 -40 34 -62 19 -23 41 -58 49 -77 8 -19 28 -49 46 -66 17 -17 31 -39 31 -48 0 -9 10 -26 23 -38 13 -12 40 -48 61 -80 21 -32 47 -62 57 -68 11 -5 19 -18 19 -29 0 -10 18 -33 40 -50 22 -17 40 -40 40 -50 0 -9 18 -32 40 -50 22 -18 40 -36 40 -40 0 -17 279 -303 401 -410 28 -25 63 -57 77 -72 15 -16 32 -28 38 -28 6 0 33 -17 60 -38 27 -21 68 -48 91 -60 23 -12 51 -30 63 -42 11 -11 28 -20 39 -20 10 0 24 -7 31 -15 7 -8 18 -15 25 -15 7 0 29 -11 49 -25 20 -14 43 -25 50 -25 16 0 109 -40 116 -49 3 -4 36 -17 75 -30 38 -12 74 -26 80 -30 16 -13 124 -48 188 -61 31 -6 57 -16 57 -21 0 -5 11 -9 24 -9 13 0 41 -7 62 -16 22 -9 72 -21 113 -26 41 -5 89 -15 109 -23 19 -8 45 -15 58 -15 14 0 32 -4 42 -9 19 -10 107 -24 257 -41 55 -6 120 -15 145 -20 117 -23 355 -35 690 -34 346 1 434 7 710 45 41 5 111 14 155 19 44 5 123 19 175 30 52 12 124 28 160 36 36 7 90 19 120 25 30 7 59 16 65 21 5 4 19 8 31 8 12 0 34 6 49 14 15 8 51 18 79 21 28 4 68 16 88 26 21 11 42 19 48 19 6 0 18 7 26 15 9 8 24 15 35 15 22 0 78 21 167 61 34 16 68 29 76 29 7 0 30 11 50 25 20 14 41 25 45 25 5 0 14 7 21 15 7 8 22 15 33 15 11 0 30 8 41 19 12 10 41 29 66 42 25 13 67 41 94 61 27 21 53 38 59 38 5 0 22 12 37 27 15 16 47 44 70 63 57 47 144 132 208 204 73 82 175 171 255 222 37 24 70 44 73 44 8 0 102 100 121 130 9 14 27 33 40 43 13 10 23 27 23 37 0 11 11 27 25 36 13 9 35 39 49 67 13 29 38 65 55 81 17 17 31 38 31 48 0 10 18 41 40 69 22 28 40 56 40 62 0 7 18 39 40 72 22 33 40 65 40 72 0 7 17 47 37 90 21 43 40 101 44 128 4 28 15 82 24 120 34 149 38 217 44 865 l6 655 95 7 c52 3 156 11 230 18 275 23 350 29 565 44 233 16 388 31 470 46 28 5 82 14 120 20 39 6 93 15 120 20 28 4 87 24 132 43 45 19 97 37 115 41 18 3 58 20 88 36 30 16 76 40 102 52 27 13 48 28 48 34 0 7 15 19 33 27 18 9 44 29 59 44 14 15 53 53 87 83 33 30 61 60 61 66 0 6 18 27 40 47 22 19 40 44 40 54 0 10 13 30 29 45 16 15 38 47 49 72 12 25 35 60 52 79 16 19 30 40 30 46 0 7 17 35 38 64 20 29 46 68 56 87 11 19 30 46 43 60 13 14 23 33 23 42 0 10 5 18 10 18 6 0 10 7 10 16 0 13 -6 15 -32 10 -18 -4 -130 -16 -248 -28 -118 -11 -249 -24 -290 -30 -41 -5 -201 -12 -355 -15 -265 -5 -426 2 -625 27 -181 23 -298 40 -340 50 -25 7 -63 14 -85 17 -22 3 -42 9 -45 14 -4 5 -37 15 -75 23 -39 8 -113 26 -165 41 -70 19 -128 27 -221 31 -121 5 -129 4 -180 -20 -29 -14 -57 -26 -62 -26 -4 0 -15 -7 -23 -15 -9 -8 -24 -15 -33 -15 -10 0 -25 -7 -32 -16 -7 -9 -47 -39 -89 -67 -41 -28 -76 -54 -78 -59 -2 -4 -21 -18 -43 -30 -21 -12 -39 -28 -39 -35 0 -7 -18 -22 -40 -33 -22 -11 -40 -26 -40 -33 0 -6 -17 -23 -37 -37 -21 -14 -51 -40 -68 -57 -16 -18 -36 -33 -42 -33 -7 0 -13 -7 -13 -15 0 -8 -4 -15 -9 -15 -5 0 -28 -18 -51 -40 -23 -22 -43 -40 -45 -40 -4 0 -83 -72 -173 -157 -31 -29 -58 -53 -62 -53 -4 0 -24 -18 -46 -40 -21 -22 -45 -40 -52 -40 -7 0 -25 -13 -40 -29 -15 -16 -41 -37 -57 -48 -77 -46 -105 -66 -105 -73 0 -4 -13 -10 -29 -13 -16 -3 -35 -12 -42 -19 -13 -12 -61 -37 -154 -77 -22 -10 -58 -26 -80 -36 -22 -10 -56 -22 -75 -26 -19 -4 -78 -18 -130 -31 -81 -19 -124 -22 -285 -23 -179 0 -223 4 -355 36 -25 5 -58 13 -75 15 -16 3 -39 9 -50 14 -11 4 -47 18 -80 30 -33 12 -69 25 -80 29 -22 8 -188 86 -219 103 -10 5 -35 19 -55 31 -20 11 -49 27 -66 35 -16 8 -59 34 -95 57 -36 23 -80 48 -97 56 -18 8 -33 19 -33 26 0 6 -14 14 -30 18 -17 4 -43 18 -59 31 -16 13 -56 37 -89 54 -33 16 -62 33 -64 38 -1 4 -34 23 -73 41 -38 19 -78 42 -88 53 -10 10 -32 21 -48 25 -16 3 -29 9 -29 14 0 5 -18 17 -40 26 -22 10 -40 21 -40 25 0 4 -16 10 -35 14 -19 3 -39 12 -43 18 -4 7 -24 20 -44 29 -20 10 -40 22 -43 27 -3 6 -15 10 -26 10 -11 0 -35 11 -52 24 -18 13 -42 27 -54 31 -13 3 -23 11 -23 16 0 5 -6 9 -12 9 -7 0 -26 8 -43 17 -16 9 -62 33 -101 53 -39 21 -79 43 -90 49 -10 6 -46 24 -79 39 -33 16 -82 41 -110 55 -92 47 -240 115 -277 128 -21 7 -38 16 -38 20 0 14 -116 20 -185 10 -88 -13 -199 -47 -245 -76 -19 -12 -66 -37 -105 -55 -38 -18 -72 -36 -75 -39 -9 -11 -133 -71 -146 -71 -8 0 -14 -4 -14 -8 0 -5 -33 -24 -72 -42 -40 -18 -84 -41 -98 -50 -14 -9 -50 -27 -80 -40 -30 -14 -69 -35 -86 -47 -17 -13 -36 -23 -43 -23 -6 0 -44 -17 -84 -38 -40 -21 -94 -46 -122 -57 -27 -10 -52 -21 -55 -24 -7 -9 -69 -32 -117 -45 -24 -6 -43 -14 -43 -18 0 -5 -10 -8 -23 -8 -12 0 -31 -6 -42 -13 -99 -65 -689 -69 -925 -5 -42 11 -103 22 -225 42 -82 13 -214 43 -290 66 -16 5 -48 12 -70 15 -41 7 -78 17 -195 56 -36 11 -83 23 -104 26 -22 3 -46 12 -54 19 -7 8 -22 14 -33 14 -11 0 -27 4 -37 10 -26 14 -110 40 -132 40 -13 0 -22 9 -26 25 -7 29 -16 31 -35 9 -10 -13 -14 -139 -19 -614 -3 -329 -8 -601 -10 -604 -9 -8 -1 903 10 1144 6 129 16 260 22 290 7 30 12 90 12 132 0 68 -3 80 -24 98 -22 19 -23 25 -18 111 6 90 -3 152 -22 164 -20 12 -49 13 -63 2z"/>
 <path d="M13595 5920 c-295 -13 -507 -44 -550 -80 -35 -29 -5 -92 50 -106 14 -3 25 -9 25 -13 0 -4 21 -12 48 -20 26 -7 69 -21 96 -32 27 -10 57 -19 67 -19 10 0 20 -4 23 -9 6 -8 36 -15 121 -27 22 -4 44 -10 50 -15 5 -5 21 -9 36 -9 15 0 30 -4 33 -9 3 -5 23 -11 43 -14 21 -3 61 -11 88 -17 28 -6 75 -15 105 -19 59 -10 213 -44 268 -60 18 -6 65 -13 105 -16 40 -3 88 -10 107 -15 19 -5 94 -16 165 -24 228 -27 424 -21 497 15 21 11 44 19 53 19 8 0 15 5 15 10 0 6 12 28 26 50 23 35 26 47 22 102 -3 35 -15 89 -28 121 -18 49 -28 61 -59 74 -20 8 -38 18 -41 22 -3 4 -34 13 -70 20 -36 7 -74 14 -85 17 -57 13 -214 34 -255 34 -26 0 -69 4 -96 9 -68 13 -654 20 -859 11z"/>
 <path d="M12368 4047 c-65 -7 -123 -17 -129 -24 -16 -16 9 -55 51 -79 16 -10 30 -22 30 -26 0 -4 5 -8 12 -8 6 0 27 -12 46 -26 19 -15 66 -43 106 -63 39 -19 73 -39 74 -43 2 -5 9 -8 14 -8 17 0 155 -67 163 -79 3 -6 19 -11 34 -11 16 0 34 -7 41 -15 7 -8 19 -15 26 -15 8 0 32 -11 54 -25 22 -14 45 -25 51 -25 7 0 55 -21 108 -46 53 -26 107 -51 121 -58 14 -6 30 -16 35 -22 6 -6 26 -17 45 -24 61 -23 105 -44 115 -56 6 -6 42 -24 80 -40 39 -16 75 -34 80 -40 6 -6 33 -20 60 -30 28 -9 62 -26 78 -37 29 -20 127 -57 151 -57 8 0 19 -6 23 -13 14 -24 156 -57 241 -57 93 0 148 19 162 55 5 14 13 25 18 25 17 0 55 85 68 149 6 36 24 122 38 190 30 140 43 313 28 351 -10 26 -35 36 -147 59 -91 20 -278 42 -425 52 -80 5 -208 14 -285 20 -462 32 -990 44 -1167 26z"/>
 <path d="M5953 3059 c-18 -5 -35 -14 -38 -19 -3 -6 -14 -10 -23 -10 -9 0 -33 -14 -52 -30 -19 -17 -45 -33 -57 -36 -13 -4 -23 -10 -23 -14 0 -4 -33 -29 -72 -56 -40 -26 -86 -60 -102 -76 -16 -15 -33 -25 -37 -22 -5 2 -16 -7 -25 -21 -9 -14 -22 -25 -30 -25 -7 0 -17 -6 -21 -14 -4 -8 -25 -21 -45 -29 -21 -9 -50 -27 -65 -41 -76 -69 -92 -82 -126 -101 -20 -11 -37 -23 -37 -26 0 -4 -32 -33 -72 -65 -40 -33 -79 -66 -88 -74 -9 -8 -36 -31 -60 -50 -24 -19 -60 -52 -81 -72 -21 -21 -42 -38 -47 -38 -5 0 -23 -15 -40 -34 -17 -19 -45 -42 -61 -52 -17 -10 -31 -24 -31 -30 0 -7 -15 -21 -33 -33 -18 -11 -43 -34 -55 -51 -13 -17 -34 -35 -48 -40 -13 -5 -24 -16 -24 -23 0 -14 -44 -57 -59 -57 -5 0 -12 -9 -16 -19 -3 -11 -24 -36 -45 -58 -22 -21 -40 -48 -40 -60 0 -12 -5 -23 -10 -25 -6 -2 -17 -21 -24 -42 -15 -44 -6 -104 18 -122 9 -6 16 -16 16 -22 0 -5 15 -22 33 -36 17 -15 37 -31 44 -36 7 -6 15 -10 18 -10 4 0 21 -11 39 -25 28 -22 43 -25 107 -25 75 0 150 19 157 39 2 6 8 11 13 11 21 0 133 62 155 85 13 14 30 25 38 25 9 0 22 11 31 23 8 13 27 30 42 38 14 8 63 49 107 92 44 42 84 77 88 77 4 0 8 5 8 10 0 6 18 26 40 46 22 20 40 40 40 45 0 8 30 41 125 140 19 20 35 41 35 47 0 5 18 30 40 53 22 24 40 46 40 50 0 4 16 24 35 44 19 21 37 46 41 57 6 20 19 37 62 84 12 14 22 33 22 42 0 9 13 29 29 44 16 15 38 47 49 72 12 25 35 60 52 79 16 19 30 42 30 51 0 9 5 22 10 29 25 30 62 92 74 126 8 20 24 64 37 98 39 102 8 141 -88 112z"/>
 <path d="M10616 2803 c-26 -4 -28 -7 -23 -40 4 -20 11 -39 16 -43 6 -3 17 -22 25 -42 9 -19 26 -49 39 -64 14 -16 38 -51 55 -79 17 -27 40 -56 51 -63 12 -7 21 -20 21 -31 0 -10 13 -29 28 -42 15 -13 39 -40 52 -59 27 -38 48 -64 68 -85 6 -8 12 -18 12 -23 0 -5 18 -26 40 -46 22 -20 40 -42 40 -49 0 -16 37 -57 51 -57 5 0 15 -12 21 -27 7 -16 27 -44 44 -63 51 -56 126 -144 164 -191 19 -24 54 -63 78 -87 23 -25 42 -47 42 -51 1 -11 46 -57 63 -64 9 -3 17 -12 17 -19 1 -18 31 -52 53 -61 9 -3 20 -15 24 -24 6 -19 51 -63 64 -63 4 0 14 -12 21 -27 7 -15 27 -34 43 -42 17 -8 32 -18 33 -23 11 -25 132 27 160 70 8 12 30 29 48 38 19 9 34 21 34 26 0 12 39 48 52 48 5 0 14 12 21 28 6 15 22 42 34 61 31 46 31 107 -1 154 -13 19 -27 43 -30 53 -4 11 -22 30 -41 44 -19 14 -35 30 -35 37 0 6 -16 21 -35 33 -19 12 -40 30 -45 40 -6 11 -26 27 -45 36 -19 9 -37 24 -40 33 -3 10 -18 24 -33 32 -15 7 -36 23 -48 34 -47 47 -196 163 -221 172 -7 3 -13 11 -13 18 0 7 -12 17 -27 23 -16 5 -45 26 -65 46 -20 20 -44 36 -51 36 -8 0 -17 7 -21 15 -3 8 -31 31 -63 51 -32 21 -73 50 -91 66 -18 15 -42 28 -53 28 -11 0 -22 7 -25 15 -5 12 -47 41 -135 91 -10 6 -27 18 -37 27 -10 10 -23 17 -28 17 -10 0 -121 55 -138 69 -11 8 -123 33 -135 30 -3 -1 -19 -4 -35 -6z"/>
 <path d="M8107 2647 c-16 -13 -27 -33 -27 -47 0 -14 -8 -45 -16 -70 -28 -78 -64 -250 -64 -306 0 -30 -4 -62 -10 -72 -17 -31 -70 -324 -71 -391 0 -36 -7 -100 -15 -141 -42 -222 -55 -342 -61 -571 -7 -295 -5 -314 50 -372 23 -25 58 -52 77 -61 19 -9 48 -24 63 -32 64 -35 422 -36 451 -1 6 8 25 19 41 26 17 7 41 27 55 44 24 31 25 35 24 187 -1 115 -7 181 -23 257 -11 55 -21 132 -21 170 0 44 -13 116 -36 208 -20 77 -40 174 -44 215 -5 41 -25 129 -44 195 -20 66 -36 132 -36 148 0 15 -18 82 -40 149 -22 68 -40 133 -40 146 0 13 -6 38 -14 55 -36 80 -65 154 -71 181 -6 27 -75 106 -93 106 -5 0 -21 -10 -35 -23z"/>
 </g>
<g id="layer102" fill="#953b26" stroke="none">
 <path d="M7134 8141 c-74 -12 -194 -51 -234 -76 -19 -12 -66 -37 -105 -55 -38 -18 -72 -36 -75 -39 -9 -11 -133 -71 -146 -71 -8 0 -14 -4 -14 -8 0 -5 -33 -24 -72 -42 -40 -18 -84 -41 -98 -50 -14 -9 -50 -27 -80 -40 -30 -14 -69 -35 -86 -47 -17 -13 -36 -23 -43 -23 -6 0 -44 -17 -84 -38 -40 -21 -94 -46 -122 -57 -27 -10 -52 -21 -55 -24 -7 -9 -69 -32 -117 -45 -24 -6 -43 -14 -43 -18 0 -5 -10 -8 -23 -8 -12 0 -31 -6 -42 -13 -99 -65 -689 -69 -925 -5 -42 11 -103 22 -225 42 -82 13 -214 43 -290 66 -16 5 -48 12 -70 15 -40 7 -59 12 -211 60 -45 14 -93 25 -108 25 -14 0 -26 4 -26 10 0 5 -12 12 -27 16 -16 3 -37 9 -48 14 -40 17 -116 40 -135 40 -13 0 -22 9 -26 25 -7 29 -16 31 -35 9 -10 -13 -15 -141 -21 -612 -4 -329 -12 -622 -17 -652 -5 -30 -10 -90 -10 -132 -1 -73 0 -78 20 -78 21 0 55 -13 144 -56 28 -13 64 -26 80 -30 17 -4 51 -17 77 -30 26 -13 54 -24 63 -24 8 0 15 -4 15 -10 0 -5 11 -10 25 -10 14 0 52 -11 84 -25 77 -32 142 -55 161 -55 8 0 33 -9 55 -20 22 -11 47 -19 56 -20 8 0 19 -4 25 -9 5 -5 40 -16 78 -26 38 -9 83 -23 100 -30 17 -7 49 -21 71 -30 90 -39 133 -74 160 -133 43 -94 65 -218 65 -371 0 -126 2 -143 30 -220 16 -47 34 -89 40 -95 5 -5 10 -21 10 -34 0 -13 16 -51 35 -84 19 -32 39 -76 44 -97 4 -20 24 -58 44 -85 21 -26 37 -57 37 -68 0 -12 15 -40 34 -62 19 -23 41 -58 49 -77 8 -19 28 -49 46 -66 17 -17 31 -39 31 -48 0 -9 10 -26 23 -38 13 -12 40 -48 61 -80 21 -32 47 -62 57 -68 11 -5 19 -18 19 -29 0 -10 18 -33 40 -50 22 -17 40 -40 40 -50 0 -9 18 -32 40 -50 22 -18 40 -36 40 -40 0 -17 279 -303 401 -410 28 -25 63 -57 77 -72 15 -16 32 -28 38 -28 6 0 33 -17 60 -38 27 -21 68 -48 91 -60 23 -12 51 -30 63 -42 11 -11 28 -20 39 -20 10 0 24 -7 31 -15 7 -8 18 -15 25 -15 7 0 29 -11 49 -25 20 -14 43 -25 50 -25 16 0 109 -40 116 -49 3 -4 36 -17 75 -30 38 -12 74 -26 80 -30 16 -13 124 -48 188 -61 31 -6 57 -16 57 -21 0 -5 11 -9 24 -9 13 0 41 -7 62 -16 22 -9 72 -21 113 -26 41 -5 89 -15 109 -23 19 -8 45 -15 58 -15 14 0 32 -4 42 -9 19 -10 107 -24 257 -41 55 -6 120 -15 145 -20 117 -23 355 -35 690 -34 346 1 434 7 710 45 41 5 111 14 155 19 44 5 123 19 175 30 52 12 124 28 160 36 36 7 90 19 120 25 30 7 59 16 64 21 6 4 20 8 32 8 12 0 34 6 49 14 15 8 51 18 79 21 28 4 68 16 88 26 21 11 42 19 48 19 6 0 18 7 26 15 9 8 24 15 35 15 22 0 78 21 167 61 34 16 68 29 76 29 7 0 30 11 50 25 20 14 41 25 45 25 5 0 14 7 21 15 7 8 22 15 33 15 11 0 30 8 41 19 12 10 41 29 66 42 25 13 67 41 94 61 27 21 53 38 59 38 5 0 22 12 37 28 15 15 47 43 70 62 57 47 144 132 208 204 73 82 175 171 255 222 37 24 70 44 73 44 8 0 102 100 121 130 9 14 27 33 40 43 13 10 23 27 23 37 0 11 11 27 25 36 13 9 35 39 49 67 13 29 38 65 55 81 17 17 31 38 31 48 0 10 18 41 40 69 22 28 40 56 40 62 0 7 18 39 40 72 22 33 40 65 40 72 0 7 17 47 37 90 21 43 40 101 44 128 4 28 15 82 24 120 34 149 38 217 44 865 l6 655 95 7 c52 3 156 11 230 18 275 23 350 29 565 44 233 16 388 31 470 46 28 5 82 14 120 20 39 6 93 15 120 20 28 4 87 24 132 43 45 19 97 37 115 41 18 3 58 20 88 36 30 16 76 40 102 52 27 13 48 28 48 34 0 7 15 19 33 27 18 9 44 29 59 44 14 15 53 53 87 83 33 30 61 60 61 66 0 6 18 27 40 47 22 19 40 44 40 54 0 10 13 30 29 45 16 15 38 47 49 72 12 25 35 60 52 79 16 19 30 40 30 46 0 7 17 35 38 64 20 29 46 68 56 87 11 19 30 46 43 60 13 14 23 33 23 42 0 10 5 18 10 18 6 0 10 7 10 16 0 13 -6 15 -32 10 -18 -4 -130 -16 -248 -28 -118 -11 -249 -24 -290 -30 -41 -5 -201 -12 -355 -15 -265 -5 -426 2 -625 27 -181 23 -298 40 -340 50 -25 7 -63 14 -85 17 -22 3 -42 9 -45 14 -4 5 -37 15 -75 23 -39 8 -113 26 -165 41 -70 19 -128 27 -221 31 -121 5 -129 4 -180 -20 -29 -14 -57 -26 -62 -26 -4 0 -15 -7 -23 -15 -9 -8 -24 -15 -33 -15 -10 0 -25 -7 -32 -16 -7 -9 -47 -39 -89 -67 -41 -28 -76 -54 -78 -59 -2 -4 -21 -18 -43 -30 -21 -12 -39 -28 -39 -35 0 -7 -18 -22 -40 -33 -22 -11 -40 -26 -40 -33 0 -6 -16 -23 -36 -36 -19 -14 -60 -47 -90 -75 -86 -82 -136 -126 -139 -126 -4 0 -84 -73 -173 -157 -31 -29 -58 -53 -62 -53 -4 0 -24 -18 -46 -40 -21 -22 -45 -40 -52 -40 -7 0 -25 -13 -40 -29 -15 -16 -41 -37 -57 -48 -77 -46 -105 -66 -105 -73 0 -4 -13 -10 -29 -13 -16 -3 -35 -12 -42 -19 -13 -12 -61 -37 -154 -77 -22 -10 -58 -26 -80 -36 -22 -10 -56 -22 -75 -26 -19 -4 -78 -18 -130 -31 -81 -19 -124 -22 -285 -23 -179 0 -223 4 -355 36 -25 5 -58 13 -75 15 -16 3 -39 9 -50 14 -11 4 -47 18 -80 30 -33 12 -69 25 -80 29 -22 8 -188 86 -219 103 -10 5 -35 19 -55 31 -20 11 -49 27 -66 35 -16 8 -59 34 -95 57 -36 23 -80 48 -97 56 -18 8 -33 19 -33 26 0 6 -14 14 -30 18 -17 4 -43 18 -59 31 -16 13 -56 37 -89 54 -33 16 -62 33 -64 38 -1 4 -34 23 -73 41 -38 19 -78 42 -88 53 -10 10 -32 21 -48 25 -16 3 -29 9 -29 14 0 5 -18 17 -40 26 -22 10 -40 21 -40 25 0 4 -16 10 -35 14 -19 3 -39 12 -43 18 -4 7 -24 20 -44 29 -20 10 -40 22 -43 27 -3 6 -16 10 -27 10 -12 0 -29 6 -37 14 -9 8 -52 33 -96 57 -44 23 -114 60 -155 82 -41 22 -102 53 -135 69 -33 16 -69 34 -80 40 -49 28 -280 137 -335 158 -19 8 -37 17 -40 22 -9 12 -139 18 -196 9z"/>
 <path d="M760 8047 c-82 -38 -77 -75 23 -169 40 -38 75 -68 79 -68 4 0 10 -9 13 -20 3 -11 12 -20 20 -20 7 0 32 -18 55 -40 23 -22 45 -40 49 -40 4 0 26 -18 49 -40 22 -22 48 -40 56 -40 9 0 16 -4 16 -9 0 -5 36 -35 80 -67 44 -32 80 -64 80 -71 0 -7 8 -13 18 -13 21 0 57 -29 65 -52 3 -9 21 -20 41 -24 20 -3 36 -10 36 -16 0 -5 15 -15 33 -23 19 -8 39 -21 47 -29 7 -9 19 -16 28 -16 8 0 29 -10 46 -23 17 -13 58 -36 91 -51 33 -16 65 -33 70 -40 12 -13 116 -66 131 -66 6 0 21 -11 34 -25 13 -14 28 -25 34 -25 10 0 91 -39 141 -68 11 -6 45 -23 75 -37 30 -15 66 -33 80 -41 14 -7 54 -27 90 -44 36 -17 72 -34 80 -40 8 -5 40 -20 70 -35 30 -14 62 -30 70 -35 28 -17 132 -60 146 -60 8 0 14 -3 14 -7 0 -8 48 -33 62 -33 5 0 50 -20 101 -44 51 -24 103 -47 116 -51 14 -4 38 -16 55 -26 17 -11 38 -19 47 -19 9 0 19 -7 23 -15 3 -8 15 -15 27 -15 11 0 33 -6 47 -14 15 -7 44 -21 64 -29 l37 -16 16 32 c27 55 35 106 45 301 5 104 15 228 22 275 8 55 13 210 13 430 l0 345 -30 8 c-28 7 -238 39 -395 59 -36 4 -101 13 -145 18 -44 6 -91 13 -105 16 -14 2 -104 12 -200 20 -96 9 -213 20 -260 25 -47 5 -139 14 -205 20 -66 6 -127 13 -135 16 -19 7 -560 33 -835 41 -116 3 -214 8 -220 12 -16 12 -78 11 -105 -2z"/>
 <path d="M13595 5920 c-295 -13 -507 -44 -550 -80 -35 -29 -5 -92 50 -106 14 -3 25 -9 25 -13 0 -4 21 -12 48 -20 26 -7 69 -21 96 -32 27 -10 57 -19 67 -19 10 0 20 -4 23 -9 6 -8 36 -15 121 -27 22 -4 44 -10 50 -15 5 -5 21 -9 36 -9 15 0 30 -4 33 -9 3 -5 23 -11 43 -14 21 -3 61 -11 88 -17 28 -6 75 -15 105 -19 59 -10 213 -44 268 -60 18 -6 65 -13 105 -16 40 -3 88 -10 107 -15 19 -5 94 -16 165 -24 228 -27 424 -21 497 15 21 11 44 19 53 19 8 0 15 5 15 10 0 6 12 28 26 50 23 35 26 47 22 102 -3 35 -15 89 -28 121 -18 49 -28 61 -59 74 -20 8 -38 18 -41 22 -3 4 -34 13 -70 20 -36 7 -74 14 -85 17 -57 13 -214 34 -255 34 -26 0 -69 4 -96 9 -68 13 -654 20 -859 11z"/>
 <path d="M12368 4047 c-65 -7 -123 -17 -129 -24 -16 -16 9 -55 51 -79 16 -10 30 -22 30 -26 0 -4 5 -8 12 -8 6 0 27 -12 46 -26 19 -15 66 -43 106 -63 39 -19 73 -39 74 -43 2 -5 9 -8 14 -8 17 0 155 -67 163 -79 3 -6 19 -11 34 -11 16 0 34 -7 41 -15 7 -8 19 -15 26 -15 8 0 32 -11 54 -25 22 -14 45 -25 51 -25 7 0 55 -21 108 -46 53 -26 107 -51 121 -58 14 -6 30 -16 35 -22 6 -6 26 -17 45 -24 61 -23 105 -44 115 -56 6 -6 42 -24 80 -40 39 -16 75 -34 80 -40 6 -6 33 -20 60 -30 28 -9 62 -26 78 -37 29 -20 127 -57 151 -57 8 0 19 -6 23 -13 14 -24 156 -57 241 -57 93 0 148 19 162 55 5 14 13 25 18 25 17 0 55 85 68 149 6 36 24 122 38 190 30 140 43 313 28 351 -10 26 -35 36 -147 59 -91 20 -278 42 -425 52 -80 5 -208 14 -285 20 -462 32 -990 44 -1167 26z"/>
 <path d="M5953 3059 c-18 -5 -35 -14 -38 -19 -3 -6 -14 -10 -23 -10 -9 0 -33 -14 -52 -30 -19 -17 -45 -33 -57 -36 -13 -4 -23 -10 -23 -14 0 -4 -33 -29 -72 -56 -40 -26 -86 -60 -102 -76 -16 -15 -33 -25 -37 -22 -5 2 -16 -7 -25 -21 -9 -14 -22 -25 -30 -25 -7 0 -17 -6 -21 -14 -4 -8 -25 -21 -45 -29 -21 -9 -50 -27 -65 -41 -76 -69 -92 -82 -126 -101 -20 -11 -37 -23 -37 -26 0 -4 -32 -33 -72 -65 -40 -33 -79 -66 -88 -74 -9 -8 -36 -31 -60 -50 -24 -19 -60 -52 -81 -72 -21 -21 -42 -38 -47 -38 -5 0 -23 -15 -40 -34 -17 -19 -45 -42 -61 -52 -17 -10 -31 -24 -31 -30 0 -7 -15 -21 -33 -33 -18 -11 -43 -34 -55 -51 -13 -17 -34 -35 -48 -40 -13 -5 -24 -16 -24 -23 0 -14 -44 -57 -59 -57 -5 0 -12 -9 -16 -19 -3 -11 -24 -36 -45 -58 -22 -21 -40 -48 -40 -60 0 -12 -5 -23 -10 -25 -6 -2 -17 -21 -24 -42 -15 -44 -6 -104 18 -122 9 -6 16 -16 16 -22 0 -5 15 -22 33 -36 17 -15 37 -31 44 -36 7 -6 15 -10 18 -10 4 0 21 -11 39 -25 28 -22 43 -25 107 -25 75 0 150 19 157 39 2 6 8 11 13 11 21 0 133 62 155 85 13 14 30 25 38 25 9 0 22 11 31 23 8 13 27 30 42 38 14 8 63 49 107 92 44 42 84 77 88 77 4 0 8 5 8 10 0 6 18 26 40 46 22 20 40 40 40 45 0 8 30 41 125 140 19 20 35 41 35 47 0 5 18 30 40 53 22 24 40 46 40 50 0 4 16 24 35 44 19 21 37 46 41 57 6 20 19 37 62 84 12 14 22 33 22 42 0 9 13 29 29 44 16 15 38 47 49 72 12 25 35 60 52 79 16 19 30 42 30 51 0 9 5 22 10 29 25 30 62 92 74 126 8 20 24 64 37 98 39 102 8 141 -88 112z"/>
 <path d="M10616 2803 c-26 -4 -28 -7 -23 -40 4 -20 11 -39 16 -43 6 -3 17 -22 25 -42 9 -19 26 -49 39 -64 14 -16 38 -51 55 -79 17 -27 40 -56 51 -63 12 -7 21 -20 21 -31 0 -10 13 -29 28 -42 15 -13 39 -40 52 -59 27 -38 48 -64 68 -85 6 -8 12 -18 12 -23 0 -5 18 -26 40 -46 22 -20 40 -42 40 -49 0 -16 37 -57 51 -57 5 0 15 -12 21 -27 7 -16 27 -44 44 -63 51 -56 126 -144 164 -191 19 -24 54 -63 78 -87 23 -25 42 -47 42 -51 1 -11 46 -57 63 -64 9 -3 17 -12 17 -19 1 -18 31 -52 53 -61 9 -3 20 -15 24 -24 6 -19 51 -63 64 -63 4 0 14 -12 21 -27 7 -15 27 -34 43 -42 17 -8 32 -18 33 -23 11 -25 132 27 160 70 8 12 30 29 48 38 19 9 34 21 34 26 0 12 39 48 52 48 5 0 14 12 21 28 6 15 22 42 34 61 31 46 31 107 -1 154 -13 19 -27 43 -30 53 -4 11 -22 30 -41 44 -19 14 -35 30 -35 37 0 6 -16 21 -35 33 -19 12 -40 30 -45 40 -6 11 -26 27 -45 36 -19 9 -37 24 -40 33 -3 10 -18 24 -33 32 -15 7 -36 23 -48 34 -47 47 -196 163 -221 172 -7 3 -13 11 -13 18 0 7 -12 17 -27 23 -16 5 -45 26 -65 46 -20 20 -44 36 -51 36 -8 0 -17 7 -21 15 -3 8 -31 31 -63 51 -32 21 -73 50 -91 66 -18 15 -42 28 -53 28 -11 0 -22 7 -25 15 -5 12 -47 41 -135 91 -10 6 -27 18 -37 27 -10 10 -23 17 -28 17 -10 0 -121 55 -138 69 -11 8 -123 33 -135 30 -3 -1 -19 -4 -35 -6z"/>
 <path d="M8107 2647 c-16 -13 -27 -33 -27 -47 0 -14 -8 -45 -16 -70 -28 -78 -64 -250 -64 -306 0 -30 -4 -62 -10 -72 -17 -31 -70 -324 -71 -391 0 -36 -7 -100 -15 -141 -42 -222 -55 -342 -61 -571 -7 -295 -5 -314 50 -372 23 -25 58 -52 77 -61 19 -9 48 -24 63 -32 64 -35 422 -36 451 -1 6 8 25 19 41 26 17 7 41 27 55 44 24 31 25 35 24 187 -1 115 -7 181 -23 257 -11 55 -21 132 -21 170 0 44 -13 116 -36 208 -20 77 -40 174 -44 215 -5 41 -25 129 -44 195 -20 66 -36 132 -36 148 0 15 -18 82 -40 149 -22 68 -40 133 -40 146 0 13 -6 38 -14 55 -36 80 -65 154 -71 181 -6 27 -75 106 -93 106 -5 0 -21 -10 -35 -23z"/>
 </g>
<g id="layer103" fill="#edd241" stroke="none">
 <path d="M14540 7400 c-6 -12 -9 -24 -7 -27 3 -2 11 5 17 17 6 12 9 24 7 27 -3 2 -11 -5 -17 -17z"/>
 <path d="M1360 7400 c0 -12 48 -32 64 -27 5 2 -5 11 -23 20 -40 20 -41 20 -41 7z"/>
 <path d="M14456 7299 c-11 -11 -17 -21 -14 -24 2 -3 13 4 23 15 24 26 16 33 -9 9z"/>
 <path d="M13745 6900 c-17 -7 -15 -9 13 -9 17 -1 32 4 32 9 0 12 -17 12 -45 0z"/>
 <path d="M13655 6880 l-20 -9 20 0 c11 0 29 4 40 9 l20 9 -20 0 c-11 0 -29 -4 -40 -9z"/>
 <path d="M12015 6689 c-113 -12 -203 -26 -214 -33 -11 -7 -63 -19 -186 -41 -44 -8 -120 -26 -170 -40 -49 -15 -115 -32 -145 -40 -53 -13 -146 -47 -182 -66 -10 -5 -23 -9 -30 -9 -6 0 -32 -9 -57 -21 -25 -11 -55 -24 -66 -29 -11 -4 -59 -26 -108 -49 -48 -23 -91 -41 -95 -41 -5 0 -17 -8 -28 -17 -11 -10 -51 -34 -89 -53 -62 -31 -99 -52 -170 -98 -11 -7 -32 -17 -47 -23 -16 -6 -28 -15 -28 -20 0 -5 -6 -9 -13 -9 -8 0 -23 -10 -35 -22 -11 -13 -38 -32 -59 -42 -21 -11 -49 -30 -63 -42 -14 -12 -35 -25 -47 -29 -13 -3 -23 -11 -23 -16 0 -5 -6 -9 -14 -9 -7 0 -20 -7 -27 -17 -15 -18 -106 -87 -155 -118 -18 -11 -94 -67 -171 -125 -76 -58 -149 -113 -163 -122 -14 -9 -59 -44 -100 -77 -41 -33 -111 -87 -155 -121 -44 -33 -87 -66 -95 -73 -8 -8 -38 -30 -66 -49 -28 -19 -63 -46 -79 -60 -33 -31 -58 -43 -180 -88 -33 -12 -69 -26 -80 -30 -106 -42 -121 -45 -234 -43 -63 1 -167 9 -230 17 -121 16 -237 29 -431 46 -220 20 -307 32 -450 60 -25 5 -76 14 -115 20 -72 12 -233 45 -295 60 -19 5 -62 13 -95 20 -94 17 -247 51 -275 61 -14 5 -54 15 -90 23 -36 8 -101 24 -145 36 -81 22 -158 41 -250 62 -27 6 -89 24 -137 39 -48 16 -93 29 -100 29 -16 0 -181 51 -193 60 -5 4 -30 10 -55 14 -42 6 -89 19 -135 36 -59 23 -154 50 -173 50 -12 0 -30 4 -40 9 -19 10 -97 38 -157 56 -114 36 -146 46 -215 69 -41 13 -95 30 -120 36 -25 7 -58 18 -75 25 -16 7 -41 18 -55 23 -14 6 -41 14 -60 17 -19 4 -44 9 -55 11 -18 4 -18 4 -3 -6 26 -16 68 -116 89 -214 13 -64 19 -129 19 -225 0 -126 2 -143 30 -220 16 -47 34 -89 40 -95 5 -5 10 -21 10 -34 0 -13 16 -51 35 -84 19 -32 39 -76 44 -97 4 -20 24 -58 44 -85 21 -26 37 -57 37 -68 0 -12 15 -40 34 -62 19 -23 41 -58 49 -77 8 -19 28 -49 46 -66 17 -17 31 -39 31 -48 0 -9 10 -26 23 -38 13 -12 40 -48 61 -80 21 -32 47 -62 57 -68 11 -5 19 -18 19 -29 0 -10 18 -33 40 -50 22 -17 40 -40 40 -50 0 -9 18 -32 40 -50 22 -18 40 -36 40 -40 0 -17 279 -303 401 -410 28 -25 63 -57 77 -73 15 -15 32 -27 38 -27 6 0 33 -17 60 -38 27 -21 68 -48 91 -60 23 -12 51 -30 63 -42 11 -11 28 -20 39 -20 10 0 24 -7 31 -15 7 -8 18 -15 25 -15 7 0 29 -11 49 -25 20 -14 43 -25 50 -25 16 0 109 -40 116 -49 3 -4 36 -17 75 -30 38 -12 74 -26 80 -30 16 -13 124 -48 188 -61 31 -6 57 -16 57 -21 0 -5 11 -9 24 -9 13 0 41 -7 62 -16 22 -9 72 -21 113 -26 41 -5 89 -15 109 -23 19 -8 45 -15 58 -15 14 0 32 -4 42 -9 19 -10 107 -24 257 -41 55 -6 120 -15 145 -20 117 -23 355 -35 690 -34 346 1 434 7 710 45 41 5 111 14 155 19 44 5 123 19 175 30 52 12 124 28 160 36 36 7 90 19 120 25 30 7 59 16 64 21 6 4 20 8 32 8 12 0 34 6 49 14 15 8 51 18 79 21 28 4 68 16 88 26 21 11 42 19 48 19 6 0 18 7 26 15 9 8 24 15 35 15 22 0 78 21 167 61 34 16 68 29 76 29 7 0 30 11 50 25 20 14 41 25 45 25 5 0 14 7 21 15 7 8 22 15 33 15 11 0 30 8 41 19 12 10 41 29 66 42 25 13 63 37 85 55 22 17 51 37 64 44 14 7 35 22 47 34 12 11 41 37 64 56 57 48 144 133 208 204 73 82 175 171 255 222 37 24 70 44 73 44 8 0 102 100 121 130 9 14 27 33 40 43 13 10 23 27 23 37 0 11 11 27 25 36 13 9 35 39 49 67 13 29 38 65 55 81 17 17 31 38 31 48 0 10 18 41 40 69 22 28 40 56 40 62 0 7 18 39 40 72 22 33 40 65 40 72 0 7 17 47 37 90 21 43 40 101 44 128 4 28 16 91 27 140 34 153 42 322 42 906 l0 559 -32 -1 c-18 -1 -64 -5 -103 -10z"/>
 <path d="M13595 5920 c-295 -13 -507 -44 -550 -80 -35 -29 -5 -92 50 -106 14 -3 25 -9 25 -13 0 -4 21 -12 48 -20 26 -7 69 -21 96 -32 27 -10 57 -19 67 -19 10 0 20 -4 23 -9 6 -8 36 -15 121 -27 22 -4 44 -10 50 -15 5 -5 21 -9 36 -9 15 0 30 -4 33 -9 3 -5 23 -11 43 -14 21 -3 61 -11 88 -17 28 -6 75 -15 105 -19 59 -10 213 -44 268 -60 18 -6 65 -13 105 -16 40 -3 88 -10 107 -15 19 -5 94 -16 165 -24 228 -27 424 -21 497 15 21 11 44 19 53 19 8 0 15 5 15 10 0 6 12 28 26 50 23 35 26 47 22 102 -3 35 -15 89 -28 121 -18 49 -28 61 -59 74 -20 8 -38 18 -41 22 -3 4 -34 13 -70 20 -36 7 -74 14 -85 17 -57 13 -214 34 -255 34 -26 0 -69 4 -96 9 -68 13 -654 20 -859 11z"/>
 <path d="M12368 4047 c-65 -7 -123 -17 -129 -24 -16 -16 9 -55 51 -79 16 -10 30 -22 30 -26 0 -4 5 -8 12 -8 6 0 27 -12 46 -26 19 -15 66 -43 106 -63 39 -19 73 -39 74 -43 2 -5 9 -8 14 -8 17 0 155 -67 163 -79 3 -6 19 -11 34 -11 16 0 34 -7 41 -15 7 -8 19 -15 26 -15 8 0 32 -11 54 -25 22 -14 45 -25 51 -25 7 0 55 -21 108 -46 53 -26 107 -51 121 -58 14 -6 30 -16 35 -22 6 -6 26 -17 45 -24 61 -23 105 -44 115 -56 6 -6 42 -24 80 -40 39 -16 75 -34 80 -40 6 -6 33 -20 60 -30 28 -9 62 -26 78 -37 29 -20 127 -57 151 -57 8 0 19 -6 23 -13 14 -24 156 -57 241 -57 93 0 148 19 162 55 5 14 13 25 18 25 17 0 55 85 68 149 6 36 24 122 38 190 30 140 43 313 28 351 -10 26 -35 36 -147 59 -91 20 -278 42 -425 52 -80 5 -208 14 -285 20 -462 32 -990 44 -1167 26z"/>
 <path d="M5953 3059 c-18 -5 -35 -14 -38 -19 -3 -6 -14 -10 -23 -10 -9 0 -33 -14 -52 -30 -19 -17 -45 -33 -57 -36 -13 -4 -23 -10 -23 -14 0 -4 -33 -29 -72 -56 -40 -26 -86 -60 -102 -76 -16 -15 -33 -25 -37 -22 -5 2 -16 -7 -25 -21 -9 -14 -22 -25 -30 -25 -7 0 -17 -6 -21 -14 -4 -8 -25 -21 -45 -29 -21 -9 -50 -27 -65 -41 -76 -69 -92 -82 -126 -101 -20 -11 -37 -23 -37 -26 0 -4 -32 -33 -72 -65 -40 -33 -79 -66 -88 -74 -9 -8 -36 -31 -60 -50 -24 -19 -60 -52 -81 -72 -21 -21 -42 -38 -47 -38 -5 0 -23 -15 -40 -34 -17 -19 -45 -42 -61 -52 -17 -10 -31 -24 -31 -30 0 -7 -15 -21 -33 -33 -18 -11 -43 -34 -55 -51 -13 -17 -34 -35 -48 -40 -13 -5 -24 -16 -24 -23 0 -14 -44 -57 -59 -57 -5 0 -12 -9 -16 -19 -3 -11 -24 -36 -45 -58 -22 -21 -40 -48 -40 -60 0 -12 -5 -23 -10 -25 -6 -2 -17 -21 -24 -42 -15 -44 -6 -104 18 -122 9 -6 16 -16 16 -22 0 -5 15 -22 33 -36 17 -15 37 -31 44 -36 7 -6 15 -10 18 -10 4 0 21 -11 39 -25 28 -22 43 -25 107 -25 75 0 150 19 157 39 2 6 8 11 13 11 21 0 133 62 155 85 13 14 30 25 38 25 9 0 22 11 31 23 8 13 27 30 42 38 14 8 63 49 107 92 44 42 84 77 88 77 4 0 8 5 8 10 0 6 18 26 40 46 22 20 40 40 40 45 0 8 30 41 125 140 19 20 35 41 35 47 0 5 18 30 40 53 22 24 40 46 40 50 0 4 16 24 35 44 19 21 37 46 41 57 6 20 19 37 62 84 12 14 22 33 22 42 0 9 13 29 29 44 16 15 38 47 49 72 12 25 35 60 52 79 16 19 30 42 30 51 0 9 5 22 10 29 25 30 62 92 74 126 8 20 24 64 37 98 39 102 8 141 -88 112z"/>
 <path d="M10616 2803 c-26 -4 -28 -7 -23 -40 4 -20 11 -39 16 -43 6 -3 17 -22 25 -42 9 -19 26 -49 39 -64 14 -16 38 -51 55 -79 17 -27 40 -56 51 -63 12 -7 21 -20 21 -31 0 -10 13 -29 28 -42 15 -13 39 -40 52 -59 27 -38 48 -64 68 -85 6 -8 12 -18 12 -23 0 -5 18 -26 40 -46 22 -20 40 -42 40 -49 0 -16 37 -57 51 -57 5 0 15 -12 21 -27 7 -16 27 -44 44 -63 51 -56 126 -144 164 -191 19 -24 54 -63 78 -87 23 -25 42 -47 42 -51 1 -11 46 -57 63 -64 9 -3 17 -12 17 -19 1 -18 31 -52 53 -61 9 -3 20 -15 24 -24 6 -19 51 -63 64 -63 4 0 14 -12 21 -27 7 -15 27 -34 43 -42 17 -8 32 -18 33 -23 11 -25 132 27 160 70 8 12 30 29 48 38 19 9 34 21 34 26 0 12 39 48 52 48 5 0 14 12 21 28 6 15 22 42 34 61 31 46 31 107 -1 154 -13 19 -27 43 -30 53 -4 11 -22 30 -41 44 -19 14 -35 30 -35 37 0 6 -16 21 -35 33 -19 12 -40 30 -45 40 -6 11 -26 27 -45 36 -19 9 -37 24 -40 33 -3 10 -18 24 -33 32 -15 7 -36 23 -48 34 -47 47 -196 163 -221 172 -7 3 -13 11 -13 18 0 7 -12 17 -27 23 -16 5 -45 26 -65 46 -20 20 -44 36 -51 36 -8 0 -17 7 -21 15 -3 8 -31 31 -63 51 -32 21 -73 50 -91 66 -18 15 -42 28 -53 28 -11 0 -22 7 -25 15 -5 12 -47 41 -135 91 -10 6 -27 18 -37 27 -10 10 -23 17 -28 17 -10 0 -121 55 -138 69 -11 8 -123 33 -135 30 -3 -1 -19 -4 -35 -6z"/>
 <path d="M8107 2647 c-16 -13 -27 -33 -27 -47 0 -14 -8 -45 -16 -70 -28 -78 -64 -250 -64 -306 0 -30 -4 -62 -10 -72 -17 -31 -70 -324 -71 -391 0 -36 -7 -100 -15 -141 -42 -222 -55 -342 -61 -571 -7 -295 -5 -314 50 -372 23 -25 58 -52 77 -61 19 -9 48 -24 63 -32 64 -35 422 -36 451 -1 6 8 25 19 41 26 17 7 41 27 55 44 24 31 25 35 24 187 -1 115 -7 181 -23 257 -11 55 -21 132 -21 170 0 44 -13 116 -36 208 -20 77 -40 174 -44 215 -5 41 -25 129 -44 195 -20 66 -36 132 -36 148 0 15 -18 82 -40 149 -22 68 -40 133 -40 146 0 13 -6 38 -14 55 -36 80 -65 154 -71 181 -6 27 -75 106 -93 106 -5 0 -21 -10 -35 -23z"/>
 </g>

</svg>